<?xml version="1.0" encoding="UTF-8" standalone="no"?>
<!-- Created with Inkscape (http://www.inkscape.org/) -->

<svg
   xmlns:dc="http://purl.org/dc/elements/1.1/"
   xmlns:cc="http://creativecommons.org/ns#"
   xmlns:rdf="http://www.w3.org/1999/02/22-rdf-syntax-ns#"
   xmlns:svg="http://www.w3.org/2000/svg"
   xmlns="http://www.w3.org/2000/svg"
   xmlns:sodipodi="http://sodipodi.sourceforge.net/DTD/sodipodi-0.dtd"
   xmlns:inkscape="http://www.inkscape.org/namespaces/inkscape"
   width="500"
   height="500"
   viewBox="0 0 500.00001 500.00001"
   id="svg2"
   version="1.1"
   inkscape:version="0.91 r13725"
   sodipodi:docname="bear.svg">
  <defs
     id="defs4" />
  <sodipodi:namedview
     id="base"
     pagecolor="#ffffff"
     bordercolor="#666666"
     borderopacity="1.0"
     inkscape:pageopacity="0.0"
     inkscape:pageshadow="2"
     inkscape:zoom="0.49497475"
     inkscape:cx="197.07837"
     inkscape:cy="-203.8762"
     inkscape:document-units="px"
     inkscape:current-layer="layer1"
     showgrid="false"
     units="px"
     inkscape:window-width="1278"
     inkscape:window-height="1368"
     inkscape:window-x="1273"
     inkscape:window-y="0"
     inkscape:window-maximized="0" />
  <metadata
     id="metadata7">
    <rdf:RDF>
      <cc:Work
         rdf:about="">
        <dc:format>image/svg+xml</dc:format>
        <dc:type
           rdf:resource="http://purl.org/dc/dcmitype/StillImage" />
        <dc:title></dc:title>
      </cc:Work>
    </rdf:RDF>
  </metadata>
  <g
     inkscape:label="Ebene 1"
     inkscape:groupmode="layer"
     id="layer1"
     transform="translate(0,-552.36216)">
    <rect
       style="color:#000000;clip-rule:nonzero;display:inline;overflow:visible;visibility:visible;opacity:1;isolation:auto;mix-blend-mode:normal;color-interpolation:sRGB;color-interpolation-filters:linearRGB;solid-color:#000000;solid-opacity:1;fill:#aaeeff;fill-opacity:1;fill-rule:nonzero;stroke:none;stroke-width:60;stroke-linecap:butt;stroke-linejoin:miter;stroke-miterlimit:4;stroke-dasharray:none;stroke-dashoffset:0;stroke-opacity:1;color-rendering:auto;image-rendering:auto;shape-rendering:auto;text-rendering:auto;enable-background:accumulate"
       id="rect4136"
       width="500"
       height="500"
       x="0"
       y="552.36218" />
    <path
       style="fill:#006680;fill-opacity:1;fill-rule:evenodd;stroke:none;stroke-width:1px;stroke-linecap:butt;stroke-linejoin:miter;stroke-opacity:1"
       d="M 258.9125,639.2482 C 154.5332,637.81756 71.907534,783.39372 72.858,857.38491 73.802416,930.90498 153.86866,988.59299 248.53177,985.66418 346.43472,982.63516 426.27334,932.75206 422.60849,856.76521 420.14206,805.62635 350.7662,640.50717 258.9125,639.2482 Z"
       id="path4292"
       inkscape:connector-curvature="0"
       sodipodi:nodetypes="sssss" />
    <path
       style="fill:#006680;fill-opacity:1;fill-rule:evenodd;stroke:none;stroke-width:1px;stroke-linecap:butt;stroke-linejoin:miter;stroke-opacity:1"
       d="m 174.11759,678.14043 -7.37199,-44.5403 c 0,0 38.54492,37.84294 32.25244,23.96155 -3.58997,-7.91952 -17.13958,-49.11862 -10.13648,-47.64123 13.25577,2.7965 42.5692,44.89061 38.70292,34.9557 -3.70991,-9.53309 -4.77515,-43.48955 -1.22867,-42.00321 2.30406,0.96567 38.08858,46.51362 38.08858,46.51362 z"
       id="path4144"
       inkscape:connector-curvature="0"
       sodipodi:nodetypes="ccsssscc" />
    <ellipse
       style="color:#000000;clip-rule:nonzero;display:inline;overflow:visible;visibility:visible;opacity:1;isolation:auto;mix-blend-mode:normal;color-interpolation:sRGB;color-interpolation-filters:linearRGB;solid-color:#000000;solid-opacity:1;fill:#aaeeff;fill-opacity:1;fill-rule:nonzero;stroke:none;stroke-width:60;stroke-linecap:butt;stroke-linejoin:miter;stroke-miterlimit:4;stroke-dasharray:none;stroke-dashoffset:0;stroke-opacity:1;color-rendering:auto;image-rendering:auto;shape-rendering:auto;text-rendering:auto;enable-background:accumulate"
       id="path4146"
       cx="197.19502"
       cy="764.46124"
       rx="17.97007"
       ry="17.418661" />
    <ellipse
       style="color:#000000;clip-rule:nonzero;display:inline;overflow:visible;visibility:visible;opacity:1;isolation:auto;mix-blend-mode:normal;color-interpolation:sRGB;color-interpolation-filters:linearRGB;solid-color:#000000;solid-opacity:1;fill:#aaeeff;fill-opacity:1;fill-rule:nonzero;stroke:none;stroke-width:60;stroke-linecap:butt;stroke-linejoin:miter;stroke-miterlimit:4;stroke-dasharray:none;stroke-dashoffset:0;stroke-opacity:1;color-rendering:auto;image-rendering:auto;shape-rendering:auto;text-rendering:auto;enable-background:accumulate"
       id="path4146-6"
       cx="303.93661"
       cy="766.48065"
       rx="16.772295"
       ry="16.279222" />
    <path
       style="fill:#aaeeff;fill-opacity:1;fill-rule:evenodd;stroke:none;stroke-width:1.18805432px;stroke-linecap:butt;stroke-linejoin:miter;stroke-opacity:1"
       d="m 254.26546,795.09789 c -46.8033,-2.73665 -76.71848,46.62145 -75.21948,84.15636 1.17781,29.49164 32.69713,61.79432 69.48004,63.84384 33.90711,1.88927 61.22469,-24.15132 67.12244,-50.93849 8.54604,-38.8156 -12.26234,-94.18957 -61.383,-97.06171 z"
       id="path4275"
       inkscape:connector-curvature="0"
       sodipodi:nodetypes="sssss" />
    <path
       style="fill:#006680;fill-opacity:1;fill-rule:evenodd;stroke:none;stroke-width:1px;stroke-linecap:butt;stroke-linejoin:miter;stroke-opacity:1"
       d="m 219.43253,848.19664 c 1.63585,-10.54959 18.49878,-15.11623 29.70773,-14.99218 12.22201,0.13528 30.89694,5.47825 31.98411,17.0597 1.24778,13.29237 -17.49937,25.57586 -32.48135,25.45771 -17.14964,-0.13525 -31.21048,-14.62724 -29.21049,-27.52523 z"
       id="path4253"
       inkscape:connector-curvature="0"
       sodipodi:nodetypes="aaasa" />
    <path
       style="fill:#006680;fill-opacity:1;fill-rule:evenodd;stroke:none;stroke-width:1px;stroke-linecap:butt;stroke-linejoin:miter;stroke-opacity:1"
       d="m 339.0725,684.65974 55.4735,85.26047 c 0,0 44.04296,-44.27108 26.13821,-72.40813 -18.20692,-28.61193 -81.61171,-12.85234 -81.61171,-12.85234 z"
       id="path4294"
       inkscape:connector-curvature="0"
       sodipodi:nodetypes="ccac" />
    <path
       style="fill:#006680;fill-opacity:1;fill-rule:evenodd;stroke:none;stroke-width:1px;stroke-linecap:butt;stroke-linejoin:miter;stroke-opacity:1"
       d="m 105.7313,769.84782 58.31302,-83.52818 c 0,0 -60.66803,-19.60982 -80.079861,7.60781 -19.739457,27.67698 21.766841,75.92037 21.766841,75.92037 z"
       id="path4294-0"
       inkscape:connector-curvature="0"
       sodipodi:nodetypes="ccac" />
    <path
       style="fill:#aaeeff;fill-opacity:1;fill-rule:evenodd;stroke:none;stroke-width:1px;stroke-linecap:butt;stroke-linejoin:miter;stroke-opacity:1"
       d="m 117.77466,744.86812 24.04996,-41.03277 c 0,0 -26.08862,-6.97271 -34.1005,6.41249 -8.147121,13.6111 10.05054,34.62028 10.05054,34.62028 z"
       id="path4294-0-5"
       inkscape:connector-curvature="0"
       sodipodi:nodetypes="ccac" />
    <path
       style="fill:#aaeeff;fill-opacity:1;fill-rule:evenodd;stroke:none;stroke-width:1px;stroke-linecap:butt;stroke-linejoin:miter;stroke-opacity:1"
       d="m 380.79137,746.26911 -21.06896,-42.49006 c 0,0 26.52568,-5.27333 33.56476,8.598 7.15789,14.10543 -12.4958,33.89206 -12.4958,33.89206 z"
       id="path4294-0-5-2"
       inkscape:connector-curvature="0"
       sodipodi:nodetypes="ccac" />
  </g>
</svg>
