<?xml version="1.0" encoding="UTF-8" standalone="no"?>
<!-- Created with Inkscape (http://www.inkscape.org/) -->

<svg
   xmlns:dc="http://purl.org/dc/elements/1.1/"
   xmlns:cc="http://creativecommons.org/ns#"
   xmlns:rdf="http://www.w3.org/1999/02/22-rdf-syntax-ns#"
   xmlns:svg="http://www.w3.org/2000/svg"
   xmlns="http://www.w3.org/2000/svg"
   xmlns:sodipodi="http://sodipodi.sourceforge.net/DTD/sodipodi-0.dtd"
   xmlns:inkscape="http://www.inkscape.org/namespaces/inkscape"
   width="500"
   height="500"
   viewBox="0 0 500.00001 500.00001"
   id="svg2"
   version="1.1"
   inkscape:version="0.91 r13725"
   sodipodi:docname="cat.svg">
  <defs
     id="defs4" />
  <sodipodi:namedview
     id="base"
     pagecolor="#ffffff"
     bordercolor="#666666"
     borderopacity="1.0"
     inkscape:pageopacity="0.0"
     inkscape:pageshadow="2"
     inkscape:zoom="0.7"
     inkscape:cx="433.96971"
     inkscape:cy="26.426981"
     inkscape:document-units="px"
     inkscape:current-layer="layer1"
     showgrid="false"
     units="px"
     inkscape:window-width="1279"
     inkscape:window-height="1368"
     inkscape:window-x="1272"
     inkscape:window-y="0"
     inkscape:window-maximized="0"
     showguides="true" />
  <metadata
     id="metadata7">
    <rdf:RDF>
      <cc:Work
         rdf:about="">
        <dc:format>image/svg+xml</dc:format>
        <dc:type
           rdf:resource="http://purl.org/dc/dcmitype/StillImage" />
        <dc:title />
      </cc:Work>
    </rdf:RDF>
  </metadata>
  <g
     inkscape:label="Ebene 1"
     inkscape:groupmode="layer"
     id="layer1"
     transform="translate(0,-552.36216)">
    <rect
       style="color:#000000;clip-rule:nonzero;display:inline;overflow:visible;visibility:visible;opacity:1;isolation:auto;mix-blend-mode:normal;color-interpolation:sRGB;color-interpolation-filters:linearRGB;solid-color:#000000;solid-opacity:1;fill:#c6e9af;fill-opacity:1;fill-rule:nonzero;stroke:none;stroke-width:5.19999981;stroke-linecap:butt;stroke-linejoin:miter;stroke-miterlimit:4;stroke-dasharray:none;stroke-dashoffset:0;stroke-opacity:1;color-rendering:auto;image-rendering:auto;shape-rendering:auto;text-rendering:auto;enable-background:accumulate"
       id="rect4300"
       width="647.14288"
       height="597.14288"
       x="-64.285713"
       y="523.79071" />
    <ellipse
       style="color:#000000;clip-rule:nonzero;display:inline;overflow:visible;visibility:visible;opacity:1;isolation:auto;mix-blend-mode:normal;color-interpolation:sRGB;color-interpolation-filters:linearRGB;solid-color:#000000;solid-opacity:1;fill:#2d5016;fill-opacity:1;fill-rule:nonzero;stroke:none;stroke-width:60;stroke-linecap:butt;stroke-linejoin:miter;stroke-miterlimit:4;stroke-dasharray:none;stroke-dashoffset:0;stroke-opacity:1;color-rendering:auto;image-rendering:auto;shape-rendering:auto;text-rendering:auto;enable-background:accumulate"
       id="path4149"
       cx="252.00127"
       cy="839.77856"
       rx="160.04576"
       ry="162.4072" />
    <ellipse
       style="color:#000000;clip-rule:nonzero;display:inline;overflow:visible;visibility:visible;opacity:1;isolation:auto;mix-blend-mode:normal;color-interpolation:sRGB;color-interpolation-filters:linearRGB;solid-color:#000000;solid-opacity:1;fill:#c6e9af;fill-opacity:1;fill-rule:nonzero;stroke:none;stroke-width:60;stroke-linecap:butt;stroke-linejoin:miter;stroke-miterlimit:4;stroke-dasharray:none;stroke-dashoffset:0;stroke-opacity:1;color-rendering:auto;image-rendering:auto;shape-rendering:auto;text-rendering:auto;enable-background:accumulate"
       id="path4146"
       cx="195.5916"
       cy="799.69409"
       rx="19.451435"
       ry="18.85944" />
    <ellipse
       style="color:#000000;clip-rule:nonzero;display:inline;overflow:visible;visibility:visible;opacity:1;isolation:auto;mix-blend-mode:normal;color-interpolation:sRGB;color-interpolation-filters:linearRGB;solid-color:#000000;solid-opacity:1;fill:#c6e9af;fill-opacity:1;fill-rule:nonzero;stroke:none;stroke-width:60;stroke-linecap:butt;stroke-linejoin:miter;stroke-miterlimit:4;stroke-dasharray:none;stroke-dashoffset:0;stroke-opacity:1;color-rendering:auto;image-rendering:auto;shape-rendering:auto;text-rendering:auto;enable-background:accumulate"
       id="path4146-6"
       cx="316.15744"
       cy="800.60895"
       rx="18.154921"
       ry="17.625751" />
    <path
       style="fill:#2d5016;fill-opacity:1;fill-rule:evenodd;stroke:none;stroke-width:1px;stroke-linecap:butt;stroke-linejoin:miter;stroke-opacity:1"
       d="m 109.35697,774.08071 c 0,0 -52.040157,-95.66258 -40.715739,-113.24066 11.32442,-17.57808 141.232729,35.62627 141.232729,35.62627 z"
       id="path4141"
       inkscape:connector-curvature="0"
       sodipodi:nodetypes="czcc" />
    <path
       style="fill:#c6e9af;fill-opacity:1;fill-rule:evenodd;stroke:none;stroke-width:1px;stroke-linecap:butt;stroke-linejoin:miter;stroke-opacity:1"
       d="m 229.29346,861.84829 c 2.95098,-7.22715 23.39218,-1.12463 23.39218,-1.12463 0,0 24.7848,-6.43151 28.06104,2.36503 4.29763,11.53891 -17.10915,26.21977 -25.81178,26.42536 -9.52124,0.22492 -30.39455,-16.02508 -25.64144,-27.66576 z"
       id="path4158"
       inkscape:connector-curvature="0"
       sodipodi:nodetypes="acasa" />
    <path
       style="fill:#2d5016;fill-opacity:1;fill-rule:evenodd;stroke:none;stroke-width:1px;stroke-linecap:butt;stroke-linejoin:miter;stroke-opacity:1"
       d="m 399.92283,775.86147 c 0,0 52.04016,-95.66259 40.71574,-113.24067 -11.32442,-17.57808 -141.23273,35.62628 -141.23273,35.62628 z"
       id="path4141-8"
       inkscape:connector-curvature="0"
       sodipodi:nodetypes="czcc" />
    <path
       style="fill:#c6e9af;fill-opacity:1;fill-rule:evenodd;stroke:none;stroke-width:1px;stroke-linecap:butt;stroke-linejoin:miter;stroke-opacity:1"
       d="m 119.93991,752.00459 c 0,0 -28.863259,-57.36593 -22.582349,-67.90698 6.280899,-10.54104 77.378199,17.2288 77.378199,17.2288 0,0 -20.98628,12.98676 -30.01475,21.29035 -9.43145,8.6742 -24.7811,29.38783 -24.7811,29.38783 z"
       id="path4141-86"
       inkscape:connector-curvature="0"
       sodipodi:nodetypes="czcac" />
    <path
       style="fill:#c6e9af;fill-opacity:1;fill-rule:evenodd;stroke:none;stroke-width:1px;stroke-linecap:butt;stroke-linejoin:miter;stroke-opacity:1"
       d="m 387.12419,755.78884 c 0,0 28.86325,-57.36593 22.58235,-67.90698 -6.28091,-10.54104 -77.37821,17.2288 -77.37821,17.2288 0,0 20.98629,12.98677 30.01475,21.29035 9.43145,8.67421 24.78111,29.38783 24.78111,29.38783 z"
       id="path4141-86-4"
       inkscape:connector-curvature="0"
       sodipodi:nodetypes="czcac" />
    <path
       style="fill:none;fill-rule:evenodd;stroke:#c6e9af;stroke-width:6.54981041;stroke-linecap:butt;stroke-linejoin:miter;stroke-miterlimit:4;stroke-dasharray:none;stroke-opacity:1"
       d="m 197.09024,906.14723 c 4.76821,8.36264 13.80072,22.32468 29.54131,20.28183 17.83384,-2.31451 23.10617,-21.70922 28.21574,-39.64409"
       id="path4277"
       inkscape:connector-curvature="0"
       sodipodi:nodetypes="csc" />
    <path
       style="fill:none;fill-rule:evenodd;stroke:#c6e9af;stroke-width:6.54981041;stroke-linecap:butt;stroke-linejoin:miter;stroke-miterlimit:4;stroke-dasharray:none;stroke-opacity:1"
       d="m 311.377,902.20831 c -4.76822,8.36264 -13.80072,22.32468 -29.54131,20.28183 -17.83384,-2.31451 -23.10617,-21.70922 -28.21574,-39.64409"
       id="path4277-7"
       inkscape:connector-curvature="0"
       sodipodi:nodetypes="csc" />
    <path
       style="fill:#2d5016;fill-opacity:1;fill-rule:evenodd;stroke:none;stroke-width:1px;stroke-linecap:butt;stroke-linejoin:miter;stroke-opacity:1"
       d="m 107.44842,771.53597 c 0,0 -0.88849,63.1305 -22.413019,81.12276 -2.12341,1.77495 -14.26864,-14.54988 -17.58961,-13.73537 -3.05647,0.74964 2.77213,18.7005 -0.6444,18.88193 -11.53299,0.6124 -23.330741,-1.34269 -23.330741,-1.34269 0,0 27.847601,48.74568 70.4446,86.72515 38.32446,34.17006 89.43645,57.80695 128.40407,60.55515 39.87603,2.8122 93.19532,-13.02487 137.73582,-41.84033 54.62984,-35.34269 93.19877,-99.39236 93.19877,-99.39236 0,0 -7.24825,0.50902 -15.84732,-0.005 -3.06253,-0.18289 -1.52501,-21.80763 -4.6638,-22.31911 -5.82893,-0.94986 -16.10138,18.72654 -19.56843,15.96179 C 410.48349,838.05338 400.729,775.3526 400.729,775.3526 L 298.30346,944.5774 204.1483,943.94122 Z"
       id="path4298"
       inkscape:connector-curvature="0"
       sodipodi:nodetypes="cssscssscssscccc" />
    <path
       style="fill:#2d5016;fill-rule:evenodd;stroke:none;stroke-width:1px;stroke-linecap:butt;stroke-linejoin:miter;stroke-opacity:1;fill-opacity:1"
       d="m 228.92857,680.2193 34.28572,-30.35714 0.35714,16.42857 47.85714,-25 -30.71428,50.35714 z"
       id="path4302"
       inkscape:connector-curvature="0" />
  </g>
</svg>
