<?xml version="1.0" encoding="UTF-8" standalone="no"?>
<!-- Created with Inkscape (http://www.inkscape.org/) -->

<svg
   xmlns:dc="http://purl.org/dc/elements/1.1/"
   xmlns:cc="http://creativecommons.org/ns#"
   xmlns:rdf="http://www.w3.org/1999/02/22-rdf-syntax-ns#"
   xmlns:svg="http://www.w3.org/2000/svg"
   xmlns="http://www.w3.org/2000/svg"
   xmlns:sodipodi="http://sodipodi.sourceforge.net/DTD/sodipodi-0.dtd"
   xmlns:inkscape="http://www.inkscape.org/namespaces/inkscape"
   width="500"
   height="500"
   viewBox="0 0 500.00001 500.00001"
   id="svg2"
   version="1.1"
   inkscape:version="0.91 r13725"
   sodipodi:docname="chicken.svg">
  <defs
     id="defs4" />
  <sodipodi:namedview
     id="base"
     pagecolor="#ffffff"
     bordercolor="#666666"
     borderopacity="1.0"
     inkscape:pageopacity="0.0"
     inkscape:pageshadow="2"
     inkscape:zoom="0.7"
     inkscape:cx="397.61629"
     inkscape:cy="204.90354"
     inkscape:document-units="px"
     inkscape:current-layer="layer1"
     showgrid="false"
     units="px"
     inkscape:window-width="1278"
     inkscape:window-height="1368"
     inkscape:window-x="1273"
     inkscape:window-y="0"
     inkscape:window-maximized="0" />
  <metadata
     id="metadata7">
    <rdf:RDF>
      <cc:Work
         rdf:about="">
        <dc:format>image/svg+xml</dc:format>
        <dc:type
           rdf:resource="http://purl.org/dc/dcmitype/StillImage" />
        <dc:title />
      </cc:Work>
    </rdf:RDF>
  </metadata>
  <g
     inkscape:label="Ebene 1"
     inkscape:groupmode="layer"
     id="layer1"
     transform="translate(0,-552.36216)">
    <rect
       style="color:#000000;clip-rule:nonzero;display:inline;overflow:visible;visibility:visible;opacity:1;isolation:auto;mix-blend-mode:normal;color-interpolation:sRGB;color-interpolation-filters:linearRGB;solid-color:#000000;solid-opacity:1;fill:#ffccaa;fill-opacity:1;fill-rule:nonzero;stroke:none;stroke-width:60;stroke-linecap:butt;stroke-linejoin:miter;stroke-miterlimit:4;stroke-dasharray:none;stroke-dashoffset:0;stroke-opacity:1;color-rendering:auto;image-rendering:auto;shape-rendering:auto;text-rendering:auto;enable-background:accumulate"
       id="rect4136"
       width="500"
       height="500"
       x="0"
       y="552.36218" />
    <path
       style="fill:#d45500;fill-opacity:1;fill-rule:evenodd;stroke:none;stroke-width:1px;stroke-linecap:butt;stroke-linejoin:miter;stroke-opacity:1"
       d="m 243.49068,640.00622 c 0,0 -13.8831,-29.0549 -10.43512,-43.59321 1.9774,-8.33761 8.14045,-21.15627 16.57342,-19.64765 9.18262,1.64274 8.87204,16.57433 9.51438,26.32477 0.84984,12.89996 -3.52953,31.85068 -3.52953,31.85068 0,0 3.19529,-21.15579 12.12316,-31.15993 7.65492,-8.57774 19.43592,-24.55634 29.15694,-18.41967 7.31865,4.6201 0.78093,18.03479 -3.06915,25.78753 -7.08131,14.25933 -34.3745,33.1554 -34.3745,33.1554 l -4.68047,-4.83516 z"
       id="path4144"
       inkscape:connector-curvature="0"
       sodipodi:nodetypes="csascsssccc" />
    <ellipse
       style="color:#000000;clip-rule:nonzero;display:inline;overflow:visible;visibility:visible;opacity:1;isolation:auto;mix-blend-mode:normal;color-interpolation:sRGB;color-interpolation-filters:linearRGB;solid-color:#000000;solid-opacity:1;fill:#d45500;fill-opacity:1;fill-rule:nonzero;stroke:none;stroke-width:60;stroke-linecap:butt;stroke-linejoin:miter;stroke-miterlimit:4;stroke-dasharray:none;stroke-dashoffset:0;stroke-opacity:1;color-rendering:auto;image-rendering:auto;shape-rendering:auto;text-rendering:auto;enable-background:accumulate"
       id="path4149"
       cx="253.65878"
       cy="763.08917"
       rx="127.0629"
       ry="128.93768" />
    <ellipse
       style="color:#000000;clip-rule:nonzero;display:inline;overflow:visible;visibility:visible;opacity:1;isolation:auto;mix-blend-mode:normal;color-interpolation:sRGB;color-interpolation-filters:linearRGB;solid-color:#000000;solid-opacity:1;fill:#ffccaa;fill-opacity:1;fill-rule:nonzero;stroke:none;stroke-width:60;stroke-linecap:butt;stroke-linejoin:miter;stroke-miterlimit:4;stroke-dasharray:none;stroke-dashoffset:0;stroke-opacity:1;color-rendering:auto;image-rendering:auto;shape-rendering:auto;text-rendering:auto;enable-background:accumulate"
       id="path4146"
       cx="201.80319"
       cy="746.41779"
       rx="15.442806"
       ry="14.972812" />
    <ellipse
       style="color:#000000;clip-rule:nonzero;display:inline;overflow:visible;visibility:visible;opacity:1;isolation:auto;mix-blend-mode:normal;color-interpolation:sRGB;color-interpolation-filters:linearRGB;solid-color:#000000;solid-opacity:1;fill:#ffccaa;fill-opacity:1;fill-rule:nonzero;stroke:none;stroke-width:60;stroke-linecap:butt;stroke-linejoin:miter;stroke-miterlimit:4;stroke-dasharray:none;stroke-dashoffset:0;stroke-opacity:1;color-rendering:auto;image-rendering:auto;shape-rendering:auto;text-rendering:auto;enable-background:accumulate"
       id="path4146-6"
       cx="304.08832"
       cy="744.61871"
       rx="14.413484"
       ry="13.993367" />
    <path
       style="fill:#ffccaa;fill-opacity:1;fill-rule:evenodd;stroke:none;stroke-width:1px;stroke-linecap:butt;stroke-linejoin:miter;stroke-opacity:1"
       d="M 254.92762,838.32658 225.85417,795.6306 c 0,0 13.10044,-25.75988 29.81441,-25.78754 16.82032,-0.0279 30.23302,25.78754 30.23302,25.78754 z"
       id="path4147"
       inkscape:connector-curvature="0"
       sodipodi:nodetypes="ccscc" />
    <path
       style="fill:#d45500;fill-opacity:1;fill-rule:evenodd;stroke:none;stroke-width:1px;stroke-linecap:butt;stroke-linejoin:miter;stroke-opacity:1"
       d="m 165.88101,850.8896 c 0,0 -49.12578,17.14889 -63.13517,39.80899 -14.867823,24.04861 -32.934464,62.77823 -20.345767,74.39294 12.588697,11.61471 30.691527,-7.98184 30.691527,-7.98184 0,0 -2.58348,18.41823 8.59362,21.48961 11.1771,3.07138 36.82982,-28.24345 36.82982,-28.24345 l 10.43512,22.10361 c 0,0 5.63334,7.20719 14.53851,16.93416 44.45425,-0.28676 48.17695,0.99574 72.35075,1.41075 25.25298,0.43349 22.3488,-0.009 80.5503,-1.49989 5.82667,-6.37356 9.34362,-10.70518 9.34362,-10.70518 l 11.04894,-28.85746 c 0,0 20.77267,40.4291 38.05749,36.8393 12.57503,-2.61167 14.73193,-35.61129 14.73193,-35.61129 0,0 11.43054,16.51236 17.80108,12.89376 18.04144,-10.24796 3.62204,-43.38552 -5.52448,-62.01292 -13.1491,-26.7789 -51.50013,-41.69909 -79.18413,-52.80306 -25.81957,-10.35615 -49.72528,4.34203 -87.70655,4.9601 -53.54296,0.8713 -89.07661,-3.11813 -89.07661,-3.11813 z"
       id="path4172"
       inkscape:connector-curvature="0"
       sodipodi:nodetypes="cszczcccscccacasssc" />
    <path
       style="fill:#ffffff;fill-opacity:1;fill-rule:evenodd;stroke:none;stroke-width:1px;stroke-linecap:butt;stroke-linejoin:miter;stroke-opacity:1"
       d="m 139.48227,988.72255 54.5496,-31.01124 43.16191,33.73292 30.09839,-24.57485 34.53517,20.3401 34.14374,-13.38837 28.77521,13.89129 c 0,0 -20.51566,132.6576 -106.06602,131.3198 -94.54853,-1.4785 -119.198,-130.30965 -119.198,-130.30965 z"
       id="path4174"
       inkscape:connector-curvature="0"
       sodipodi:nodetypes="cccccccsc" />
  </g>
</svg>
