<?xml version="1.0" encoding="UTF-8" standalone="no"?>
<!-- Created with Inkscape (http://www.inkscape.org/) -->

<svg
   xmlns:dc="http://purl.org/dc/elements/1.1/"
   xmlns:cc="http://creativecommons.org/ns#"
   xmlns:rdf="http://www.w3.org/1999/02/22-rdf-syntax-ns#"
   xmlns:svg="http://www.w3.org/2000/svg"
   xmlns="http://www.w3.org/2000/svg"
   xmlns:sodipodi="http://sodipodi.sourceforge.net/DTD/sodipodi-0.dtd"
   xmlns:inkscape="http://www.inkscape.org/namespaces/inkscape"
   width="3080"
   height="750"
   viewBox="0 0 3080.0002 750"
   id="svg2"
   version="1.1"
   inkscape:version="0.91 r13725"
   sodipodi:docname="logo.svg">
  <defs
     id="defs4" />
  <sodipodi:namedview
     id="base"
     pagecolor="#ffffff"
     bordercolor="#666666"
     borderopacity="1.0"
     inkscape:pageopacity="0.0"
     inkscape:pageshadow="2"
     inkscape:zoom="0.49497475"
     inkscape:cx="1516.8192"
     inkscape:cy="175.61152"
     inkscape:document-units="px"
     inkscape:current-layer="layer1"
     showgrid="false"
     inkscape:window-width="2560"
     inkscape:window-height="1377"
     inkscape:window-x="-8"
     inkscape:window-y="-8"
     inkscape:window-maximized="1"
     units="px" />
  <metadata
     id="metadata7">
    <rdf:RDF>
      <cc:Work
         rdf:about="">
        <dc:format>image/svg+xml</dc:format>
        <dc:type
           rdf:resource="http://purl.org/dc/dcmitype/StillImage" />
        <dc:title></dc:title>
      </cc:Work>
    </rdf:RDF>
  </metadata>
  <g
     inkscape:label="Ebene 1"
     inkscape:groupmode="layer"
     id="layer1"
     transform="translate(0,-302.3622)">
    <path
       sodipodi:type="spiral"
       style="fill:none;fill-rule:evenodd;stroke:#272727;stroke-width:60.73960114;stroke-linecap:butt;stroke-linejoin:miter;stroke-miterlimit:4;stroke-dasharray:none;stroke-opacity:1"
       id="path4138"
       sodipodi:cx="272.62814"
       sodipodi:cy="703.43518"
       sodipodi:expansion="1"
       sodipodi:revolution="1.4967873"
       sodipodi:radius="205.81036"
       sodipodi:argument="-17.675838"
       sodipodi:t0="0.17574638"
       d="m 238.23802,714.64317 c -25.46174,-21.9577 -11.07437,-61.57734 12.53038,-78.28152 41.57432,-29.42057 98.03443,-6.56034 121.61668,34.56203 34.37948,59.95042 2.1592,135.04213 -56.59368,164.95184 -78.0186,39.71744 -172.26016,-2.17883 -208.287,-78.62533 -41.67554,-88.43266 -1.05165,-194.22491 81.71674,-241.96701" />
    <path
       style="fill:none;fill-rule:evenodd;stroke:#272727;stroke-width:60.73960114;stroke-linecap:butt;stroke-linejoin:miter;stroke-miterlimit:4;stroke-dasharray:none;stroke-opacity:1"
       d="M 188.34627,515.74418 416.7598,378.38859"
       id="path4142"
       inkscape:connector-curvature="0" />
    <path
       sodipodi:type="spiral"
       style="fill:none;fill-rule:evenodd;stroke:#272727;stroke-width:60.73960114;stroke-linecap:butt;stroke-linejoin:miter;stroke-miterlimit:4;stroke-dasharray:none;stroke-opacity:1"
       id="path4138-1"
       sodipodi:cx="-479.91623"
       sodipodi:cy="-651.28918"
       sodipodi:expansion="1"
       sodipodi:revolution="1.4967873"
       sodipodi:radius="205.81036"
       sodipodi:argument="-17.675838"
       sodipodi:t0="0.17574638"
       d="m -514.30636,-640.0812 c -25.46173,-21.95769 -11.07436,-61.57733 12.53039,-78.28151 41.57432,-29.42057 98.03443,-6.56034 121.61668,34.56202 34.37948,59.95043 2.1592,135.04213 -56.59368,164.95185 -78.0186,39.71743 -172.26017,-2.17884 -208.287,-78.62533 -41.67554,-88.43266 -1.05165,-194.22491 81.71673,-241.96702"
       transform="scale(-1,-1)" />
    <path
       style="fill:none;fill-rule:evenodd;stroke:#272727;stroke-width:60.73960114;stroke-linecap:butt;stroke-linejoin:miter;stroke-miterlimit:4;stroke-dasharray:none;stroke-opacity:1"
       d="M 564.19812,838.9802 335.78459,976.33579"
       id="path4142-7"
       inkscape:connector-curvature="0" />
    <g
       style="font-style:normal;font-weight:normal;font-size:45.18834305px;line-height:125%;font-family:sans-serif;letter-spacing:0px;word-spacing:0px;fill:#272727;fill-opacity:1;stroke:none;stroke-width:1px;stroke-linecap:butt;stroke-linejoin:miter;stroke-opacity:1"
       id="text3337">
      <path
         d="m 891.22743,777.48038 0,-266.84398 -67.02128,0 0,333.45155 201.06385,0 0,-66.60757 -134.04257,0 z"
         style="font-style:normal;font-variant:normal;font-weight:500;font-stretch:normal;font-size:423.64068604px;font-family:'LEMON MILK';-inkscape-font-specification:'LEMON MILK Medium';fill:#272727;fill-opacity:1"
         id="path4140" />
      <path
         d="m 1212.0608,850.50048 c 95.5674,0 173.7589,-77.77778 173.7589,-172.72459 0,-95.77424 -78.1915,-173.96574 -173.5521,-173.96574 -95.3605,0 -173.3451,78.1915 -173.3451,173.96574 0,94.94681 77.9846,172.72459 173.1383,172.72459 z m 0,-67.8487 c -58.1265,0 -105.4965,-47.36998 -105.4965,-105.28961 0,-58.33333 47.37,-105.91017 105.4965,-105.91017 58.3333,0 105.9102,47.57684 105.9102,105.91017 0,57.91963 -47.5769,105.28961 -105.9102,105.28961 z"
         style="font-style:normal;font-variant:normal;font-weight:500;font-stretch:normal;font-size:423.64068604px;font-family:'LEMON MILK';-inkscape-font-specification:'LEMON MILK Medium';fill:#272727;fill-opacity:1"
         id="path4143" />
      <path
         d="m 1747.6105,656.88345 -156.7967,0 0,61.84988 86.2588,0 c -2.2754,40.13003 -36.4066,64.53902 -83.9834,64.53902 -65.1596,0 -110.2542,-47.57684 -110.2542,-105.49646 0,-62.2636 52.3346,-106.11703 104.0485,-106.11703 29.7872,0 59.5745,14.4799 85.6383,39.92317 l 37.2341,-55.64421 c -32.6833,-31.8558 -78.8121,-51.71395 -122.045,-52.12767 -95.3605,0 -173.1383,78.60521 -173.1383,173.96574 0,95.15367 77.3641,172.93145 175.6206,172.93145 86.8794,0 159.0721,-61.02246 159.0721,-165.6915 0,-9.10166 -0.6206,-18.41017 -1.6548,-28.13239 z"
         style="font-style:normal;font-variant:normal;font-weight:500;font-stretch:normal;font-size:423.64068604px;font-family:'LEMON MILK';-inkscape-font-specification:'LEMON MILK Medium';fill:#272727;fill-opacity:1"
         id="path4145" />
      <path
         d="m 1793.1187,844.08795 67.0213,0 0,-333.45155 -67.0213,0 0,333.45155 z"
         style="font-style:normal;font-variant:normal;font-weight:500;font-stretch:normal;font-size:423.64068604px;font-family:'LEMON MILK';-inkscape-font-specification:'LEMON MILK Medium';fill:#272727;fill-opacity:1"
         id="path4147" />
      <path
         d="m 2135.4651,510.6364 -85.6383,193.61703 -85.4314,-193.61703 -70.9516,0 155.3487,341.72578 2.4823,0 155.9693,-341.72578 -71.779,0 z"
         style="font-style:normal;font-variant:normal;font-weight:500;font-stretch:normal;font-size:423.64068604px;font-family:'LEMON MILK';-inkscape-font-specification:'LEMON MILK Medium';fill:#272727;fill-opacity:1"
         id="path4149" />
      <path
         d="m 2240.7547,844.08795 67.0213,0 0,-333.45155 -67.0213,0 0,333.45155 z"
         style="font-style:normal;font-variant:normal;font-weight:500;font-stretch:normal;font-size:423.64068604px;font-family:'LEMON MILK';-inkscape-font-specification:'LEMON MILK Medium';fill:#272727;fill-opacity:1"
         id="path4151" />
      <path
         d="m 2432.7169,777.48038 0,-266.84398 -67.0212,0 0,333.45155 201.0638,0 0,-66.60757 -134.0426,0 z"
         style="font-style:normal;font-variant:normal;font-weight:500;font-stretch:normal;font-size:423.64068604px;font-family:'LEMON MILK';-inkscape-font-specification:'LEMON MILK Medium';fill:#272727;fill-opacity:1"
         id="path4153" />
      <path
         d="m 2604.8209,844.08795 67.0213,0 0,-333.45155 -67.0213,0 0,333.45155 z"
         style="font-style:normal;font-variant:normal;font-weight:500;font-stretch:normal;font-size:423.64068604px;font-family:'LEMON MILK';-inkscape-font-specification:'LEMON MILK Medium';fill:#272727;fill-opacity:1"
         id="path4155" />
      <path
         d="m 2953.3729,844.08795 72.6064,0 -159.4858,-341.72579 -2.0686,0 -159.2789,341.72579 72.3995,0 21.3062,-46.54255 133.4219,0 21.0993,46.54255 z m -128.4574,-103.63476 40.7506,-89.15485 40.5437,89.15485 -81.2943,0 z"
         style="font-style:normal;font-variant:normal;font-weight:500;font-stretch:normal;font-size:423.64068604px;font-family:'LEMON MILK';-inkscape-font-specification:'LEMON MILK Medium';fill:#272727;fill-opacity:1"
         id="path4157" />
    </g>
  </g>
</svg>
